<svg width="314" height="157" viewBox="0 0 314 157" fill="none" xmlns="http://www.w3.org/2000/svg">
<path d="M302 0H12C5.37258 0 0 5.37258 0 12V145C0 151.627 5.37258 157 12 157H302C308.627 157 314 151.627 314 145V12C314 5.37258 308.627 0 302 0Z" fill="url(#paint0_linear)"/>
<g filter="url(#filter0_dd)">
<path d="M229 34H85C80.5817 34 77 37.5817 77 42V114C77 118.418 80.5817 122 85 122H229C233.418 122 237 118.418 237 114V42C237 37.5817 233.418 34 229 34Z" fill="white"/>
</g>
<path d="M222 110.5L224 112.5L226 110.5M226 48.5L224 46.5L222 48.5H226ZM222 89.5L224 91.5L226 89.5H222Z" stroke="#E4E4EB" stroke-width="1.5" stroke-linecap="round" stroke-linejoin="round"/>
<path d="M77 80H237V81H77V80ZM77 101H237V102H77V101Z" fill="#F2F2F5"/>
<path d="M89 48H149" stroke="#555770" stroke-width="3" stroke-linecap="round" stroke-linejoin="round"/>
<path d="M89 68H181M89 58H205H89Z" stroke="#E4E4EB" stroke-width="3" stroke-linecap="round" stroke-linejoin="round"/>
<path d="M89 112H141M89 91H165H89Z" stroke="#555770" stroke-width="3" stroke-linecap="round" stroke-linejoin="round"/>
<defs>
<filter id="filter0_dd" x="62" y="27" width="190" height="118" filterUnits="userSpaceOnUse" color-interpolation-filters="sRGB">
<feFlood flood-opacity="0" result="BackgroundImageFix"/>
<feColorMatrix in="SourceAlpha" type="matrix" values="0 0 0 0 0 0 0 0 0 0 0 0 0 0 0 0 0 0 127 0"/>
<feOffset dy="3"/>
<feGaussianBlur stdDeviation="3"/>
<feColorMatrix type="matrix" values="0 0 0 0 0 0 0 0 0 0 0 0 0 0 0 0 0 0 0.05 0"/>
<feBlend mode="normal" in2="BackgroundImageFix" result="effect1_dropShadow"/>
<feColorMatrix in="SourceAlpha" type="matrix" values="0 0 0 0 0 0 0 0 0 0 0 0 0 0 0 0 0 0 127 0"/>
<feOffset dy="8"/>
<feGaussianBlur stdDeviation="7.5"/>
<feColorMatrix type="matrix" values="0 0 0 0 0 0 0 0 0 0 0 0 0 0 0 0 0 0 0.1 0"/>
<feBlend mode="normal" in2="effect1_dropShadow" result="effect2_dropShadow"/>
<feBlend mode="normal" in="SourceGraphic" in2="effect2_dropShadow" result="shape"/>
</filter>
<linearGradient id="paint0_linear" x1="0" y1="0" x2="314.69" y2="1.396" gradientUnits="userSpaceOnUse">
<stop stop-color="#73DFE7"/>
<stop offset="1" stop-color="#00CFDE"/>
</linearGradient>
</defs>
</svg>
