<svg width="313" height="157" viewBox="0 0 313 157" fill="none" xmlns="http://www.w3.org/2000/svg">
<path d="M301.038 0H11.9615C5.35536 0 0 5.37247 0 11.9997V145C0 151.628 5.35536 157 11.9615 157H301.038C307.645 157 313 151.628 313 145V11.9997C313 5.37247 307.645 0 301.038 0Z" fill="url(#paint0_linear)"/>
<g filter="url(#filter0_dd)">
<path d="M217.306 54.8405H95.694C92.3909 54.8405 89.7133 57.5189 89.7133 60.8229V123.64C89.7133 126.944 92.3909 129.623 95.694 129.623H217.306C220.609 129.623 223.287 126.944 223.287 123.64V60.8229C223.287 57.5189 220.609 54.8405 217.306 54.8405Z" fill="white"/>
</g>
<g filter="url(#filter1_dd)">
<path d="M217.306 26.9218H165.471C162.168 26.9218 159.49 29.6003 159.49 32.9043V44.87C159.49 48.1741 162.168 50.8525 165.471 50.8525H217.306C220.609 50.8525 223.287 48.1741 223.287 44.87V32.9043C223.287 29.6003 220.609 26.9218 217.306 26.9218Z" fill="#4D0099"/>
</g>
<path d="M89.7133 72.7887H223.287V73.7854H89.7133V72.7887ZM89.7133 91.7336H223.287V92.7304H89.7133V91.7336ZM89.7133 110.678H223.287V111.674H89.7133V110.678Z" fill="#F3F4F6"/>
<defs>
<filter id="filter0_dd" x="83.1593" y="51.5635" width="146.681" height="87.8902" filterUnits="userSpaceOnUse" color-interpolation-filters="sRGB">
<feFlood flood-opacity="0" result="BackgroundImageFix"/>
<feColorMatrix in="SourceAlpha" type="matrix" values="0 0 0 0 0 0 0 0 0 0 0 0 0 0 0 0 0 0 127 0"/>
<feOffset dy="2.185"/>
<feGaussianBlur stdDeviation="2.185"/>
<feColorMatrix type="matrix" values="0 0 0 0 0 0 0 0 0 0 0 0 0 0 0 0 0 0 0.06 0"/>
<feBlend mode="normal" in2="BackgroundImageFix" result="effect1_dropShadow"/>
<feColorMatrix in="SourceAlpha" type="matrix" values="0 0 0 0 0 0 0 0 0 0 0 0 0 0 0 0 0 0 127 0"/>
<feOffset dy="3.277"/>
<feGaussianBlur stdDeviation="3.277"/>
<feColorMatrix type="matrix" values="0 0 0 0 0 0 0 0 0 0 0 0 0 0 0 0 0 0 0.1 0"/>
<feBlend mode="normal" in2="effect1_dropShadow" result="effect2_dropShadow"/>
<feBlend mode="normal" in="SourceGraphic" in2="effect2_dropShadow" result="shape"/>
</filter>
<filter id="filter1_dd" x="152.936" y="23.6448" width="76.9043" height="37.0386" filterUnits="userSpaceOnUse" color-interpolation-filters="sRGB">
<feFlood flood-opacity="0" result="BackgroundImageFix"/>
<feColorMatrix in="SourceAlpha" type="matrix" values="0 0 0 0 0 0 0 0 0 0 0 0 0 0 0 0 0 0 127 0"/>
<feOffset dy="2.185"/>
<feGaussianBlur stdDeviation="2.185"/>
<feColorMatrix type="matrix" values="0 0 0 0 0 0 0 0 0 0 0 0 0 0 0 0 0 0 0.06 0"/>
<feBlend mode="normal" in2="BackgroundImageFix" result="effect1_dropShadow"/>
<feColorMatrix in="SourceAlpha" type="matrix" values="0 0 0 0 0 0 0 0 0 0 0 0 0 0 0 0 0 0 127 0"/>
<feOffset dy="3.277"/>
<feGaussianBlur stdDeviation="3.277"/>
<feColorMatrix type="matrix" values="0 0 0 0 0 0 0 0 0 0 0 0 0 0 0 0 0 0 0.1 0"/>
<feBlend mode="normal" in2="effect1_dropShadow" result="effect2_dropShadow"/>
<feBlend mode="normal" in="SourceGraphic" in2="effect2_dropShadow" result="shape"/>
</filter>
<linearGradient id="paint0_linear" x1="0" y1="0" x2="313.688" y2="1.38719" gradientUnits="userSpaceOnUse">
<stop stop-color="#AC5DD9"/>
<stop offset="1" stop-color="#6600CC"/>
</linearGradient>
</defs>
</svg>
