<svg width="314" height="157" viewBox="0 0 314 157" fill="none" xmlns="http://www.w3.org/2000/svg">
<path d="M302 0H12C5.37258 0 0 5.37258 0 12V145C0 151.627 5.37258 157 12 157H302C308.627 157 314 151.627 314 145V12C314 5.37258 308.627 0 302 0Z" fill="url(#paint0_linear)"/>
<g filter="url(#filter0_dd)">
<path d="M74 43C74 40.8783 74.8429 38.8434 76.3431 37.3431C77.8434 35.8429 79.8783 35 82 35H91.515C93.106 34.9999 94.6319 34.3679 95.757 33.243L102 27L108.243 33.243C108.8 33.8001 109.461 34.242 110.189 34.5435C110.917 34.8449 111.697 35.0001 112.485 35H218C220.122 35 222.157 35.8429 223.657 37.3431C225.157 38.8434 226 40.8783 226 43V118C226 120.122 225.157 122.157 223.657 123.657C222.157 125.157 220.122 126 218 126H82C79.8783 126 77.8434 125.157 76.3431 123.657C74.8429 122.157 74 120.122 74 118V43Z" fill="white"/>
</g>
<path d="M110 76H130M110 52H130H110ZM174 52H194H174ZM174 76H194H174Z" stroke="#555770" stroke-width="3" stroke-linecap="round" stroke-linejoin="round"/>
<path d="M110 82H138M110 58H138H110ZM174 58H202H174ZM174 82H202H174Z" stroke="#E4E4EB" stroke-width="3" stroke-linecap="round" stroke-linejoin="round"/>
<path d="M98 47H90C87.7909 47 86 48.7909 86 51V59C86 61.2091 87.7909 63 90 63H98C100.209 63 102 61.2091 102 59V51C102 48.7909 100.209 47 98 47Z" fill="#FCCC75"/>
<path d="M162 47H154C151.791 47 150 48.7909 150 51V59C150 61.2091 151.791 63 154 63H162C164.209 63 166 61.2091 166 59V51C166 48.7909 164.209 47 162 47Z" fill="#FCCC75"/>
<path d="M98 71H90C87.7909 71 86 72.7909 86 75V83C86 85.2091 87.7909 87 90 87H98C100.209 87 102 85.2091 102 83V75C102 72.7909 100.209 71 98 71Z" fill="#FCCC75"/>
<path d="M162 71H154C151.791 71 150 72.7909 150 75V83C150 85.2091 151.791 87 154 87H162C164.209 87 166 85.2091 166 83V75C166 72.7909 164.209 71 162 71Z" fill="#FCCC75"/>
<path d="M74 99H226V118C226 120.122 225.157 122.157 223.657 123.657C222.157 125.157 220.122 126 218 126H82C79.8783 126 77.8434 125.157 76.3431 123.657C74.8429 122.157 74 120.122 74 118V99Z" fill="#F2F2F5"/>
<path d="M87 109H107" stroke="#555770" stroke-width="3" stroke-linecap="round" stroke-linejoin="round"/>
<path d="M87 115H155" stroke="#E4E4EB" stroke-width="3" stroke-linecap="round" stroke-linejoin="round"/>
<defs>
<filter id="filter0_dd" x="59" y="20" width="182" height="129" filterUnits="userSpaceOnUse" color-interpolation-filters="sRGB">
<feFlood flood-opacity="0" result="BackgroundImageFix"/>
<feColorMatrix in="SourceAlpha" type="matrix" values="0 0 0 0 0 0 0 0 0 0 0 0 0 0 0 0 0 0 127 0"/>
<feOffset dy="3"/>
<feGaussianBlur stdDeviation="3"/>
<feColorMatrix type="matrix" values="0 0 0 0 0 0 0 0 0 0 0 0 0 0 0 0 0 0 0.05 0"/>
<feBlend mode="normal" in2="BackgroundImageFix" result="effect1_dropShadow"/>
<feColorMatrix in="SourceAlpha" type="matrix" values="0 0 0 0 0 0 0 0 0 0 0 0 0 0 0 0 0 0 127 0"/>
<feOffset dy="8"/>
<feGaussianBlur stdDeviation="7.5"/>
<feColorMatrix type="matrix" values="0 0 0 0 0 0 0 0 0 0 0 0 0 0 0 0 0 0 0.1 0"/>
<feBlend mode="normal" in2="effect1_dropShadow" result="effect2_dropShadow"/>
<feBlend mode="normal" in="SourceGraphic" in2="effect2_dropShadow" result="shape"/>
</filter>
<linearGradient id="paint0_linear" x1="0" y1="0" x2="314.69" y2="1.396" gradientUnits="userSpaceOnUse">
<stop stop-color="#FDAC42"/>
<stop offset="1" stop-color="#FF8800"/>
</linearGradient>
</defs>
</svg>
