<svg width="314" height="157" viewBox="0 0 314 157" fill="none" xmlns="http://www.w3.org/2000/svg">
<path d="M302 0H12C5.37258 0 0 5.37258 0 12V145C0 151.627 5.37258 157 12 157H302C308.627 157 314 151.627 314 145V12C314 5.37258 308.627 0 302 0Z" fill="url(#paint0_linear)"/>
<path d="M175 59H139C128.507 59 120 67.5066 120 78C120 88.4934 128.507 97 139 97H175C185.493 97 194 88.4934 194 78C194 67.5066 185.493 59 175 59Z" fill="#004FC4"/>
<g filter="url(#filter0_dd)">
<path d="M139 95C148.389 95 156 87.3888 156 78C156 68.6112 148.389 61 139 61C129.611 61 122 68.6112 122 78C122 87.3888 129.611 95 139 95Z" fill="white"/>
</g>
<defs>
<filter id="filter0_dd" x="107" y="54" width="64" height="64" filterUnits="userSpaceOnUse" color-interpolation-filters="sRGB">
<feFlood flood-opacity="0" result="BackgroundImageFix"/>
<feColorMatrix in="SourceAlpha" type="matrix" values="0 0 0 0 0 0 0 0 0 0 0 0 0 0 0 0 0 0 127 0"/>
<feOffset dy="3"/>
<feGaussianBlur stdDeviation="3"/>
<feColorMatrix type="matrix" values="0 0 0 0 0 0 0 0 0 0 0 0 0 0 0 0 0 0 0.05 0"/>
<feBlend mode="normal" in2="BackgroundImageFix" result="effect1_dropShadow"/>
<feColorMatrix in="SourceAlpha" type="matrix" values="0 0 0 0 0 0 0 0 0 0 0 0 0 0 0 0 0 0 127 0"/>
<feOffset dy="8"/>
<feGaussianBlur stdDeviation="7.5"/>
<feColorMatrix type="matrix" values="0 0 0 0 0 0 0 0 0 0 0 0 0 0 0 0 0 0 0.1 0"/>
<feBlend mode="normal" in2="effect1_dropShadow" result="effect2_dropShadow"/>
<feBlend mode="normal" in="SourceGraphic" in2="effect2_dropShadow" result="shape"/>
</filter>
<linearGradient id="paint0_linear" x1="0" y1="0" x2="314.69" y2="1.396" gradientUnits="userSpaceOnUse">
<stop stop-color="#5B8DEF"/>
<stop offset="1" stop-color="#0063F7"/>
</linearGradient>
</defs>
</svg>
